<svg width="352" height="371" viewBox="0 0 352 371" fill="none" xmlns="http://www.w3.org/2000/svg">
<path d="M127.016 167.943H101.905L119.029 70.3524H194.934C194.934 70.3524 208.631 70.3524 215.359 84.0489C222.087 97.7454 233.1 132.556 233.1 132.556L244.584 119.145L228.035 70.3524H256.571L277.145 131.989L323.349 70.3524H351.315L283.828 162.237C277.776 169.668 263.709 174.984 259.387 161.665L254.132 142.836L238.297 164.777C232.749 172.511 218.795 172.894 215.468 164.777L204.098 131.994C204.098 131.994 193.635 142.838 182.221 142.838H134.276L138.431 119.154H180.094C197.108 118.678 201.471 94.8975 184.549 93.756H139.464L127.016 167.943Z" fill="#3E3A71"/>
<path d="M44.474 64.5087H68.4105C68.4105 64.5087 173.415 -16.5643 229.778 49.0671C197.35 -26.5992 71.4989 33.6255 44.474 64.5087Z" fill="#EAE9FF"/>
<path d="M238.272 64.5086H253.713C253.713 64.5086 251.395 -48.2175 96.9772 24.3588C243.677 -30.4593 238.272 64.5086 238.272 64.5086Z" fill="#3E3A71"/>
<path d="M3.55207 159.476H24.3987C24.3987 159.476 40.6119 214.296 127.86 191.133C22.8553 231.283 3.55207 159.476 3.55207 159.476Z" fill="#EAE9FF"/>
<path d="M190.402 159.476H211.248C211.248 159.476 75.3589 285.176 6.64927 181.406C82.3072 255.218 190.402 159.476 190.402 159.476Z" fill="#3E3A71"/>
<path d="M43.6618 285.146C45.7027 282.352 47.0286 279.112 47.6394 275.427C48.2312 271.761 47.9841 268.521 46.898 265.708C45.812 262.895 43.9285 260.693 41.2476 259.103C38.57 257.513 35.1371 256.717 30.9487 256.717H9.16744L0 311.937H11.6741L14.6548 294.036H24.4527C28.6948 294.036 32.4466 293.254 35.7081 291.691C38.8671 290.212 41.6025 287.961 43.6618 285.146ZM33.7428 280.24C32.7799 281.649 31.4584 282.775 29.9148 283.502C28.3054 284.286 26.3687 284.679 24.1047 284.679H16.2116L19.2763 266.266H27.1493C29.4144 266.266 31.216 266.648 32.5542 267.411C33.8336 268.107 34.8126 269.248 35.3046 270.619C35.7989 271.994 35.902 273.599 35.614 275.432C35.3446 277.151 34.7056 278.792 33.7411 280.24H33.7428Z" fill="#3E3A71"/>
<path d="M78.3849 299.34L80.3687 311.937H92.8784L83.0099 256.724H67.9667L39.7347 311.937H52.2443L58.4428 299.347L78.3849 299.34ZM73.2237 269.334H73.6558L76.9475 290.228H62.9349L73.2237 269.334Z" fill="#3E3A71"/>
<path d="M122.157 280.496H121.564L112.909 256.717H99.8331L114.069 292.412L110.806 311.93H122.4L125.661 292.412L151.706 256.717H138.63L122.157 280.496Z" fill="#3E3A71"/>
<path d="M235.336 256.717L219.861 295.162H219.375L215.654 256.717H204.735L188.317 295.082H187.858L185.054 256.717H172.302L178.934 311.93H190.312L206.838 275.831H207.27L211.746 311.93H223.122L248.088 256.717H235.336Z" fill="#3E3A71"/>
<path d="M249.058 311.937L255.258 299.347H275.193L277.177 311.937H289.687L279.82 256.724H264.777L236.548 311.937H249.058ZM270.034 269.341H270.464L273.754 290.228H259.742L270.034 269.341Z" fill="#3E3A71"/>
<path d="M307.616 311.93H319.21L322.471 292.412L348.514 256.717H335.44L318.966 280.496H318.373L309.72 256.717H296.643L310.878 292.412L307.616 311.93Z" fill="#3E3A71"/>
<path d="M3.15871 361.449H5.53925V339.977H20.3924V361.449H22.8201V337.644H3.15871V361.449Z" fill="#3E3A71"/>
<path d="M34.7698 351.445C34.7698 354.429 34.3098 356.508 33.3896 357.682C32.4694 358.855 31.0572 359.363 29.153 359.205V361.442C31.6277 361.632 33.5796 360.981 35.0086 359.491C36.4376 358 37.1515 355.318 37.1504 351.445V339.971H49.1489V361.442H51.5295V337.637H34.7698V351.445Z" fill="#3E3A71"/>
<path d="M81.8547 343.024C80.8788 341.225 79.4302 339.727 77.6652 338.692C75.8876 337.645 73.8702 337.121 71.6129 337.121C68.2169 337.121 65.3124 338.319 62.8994 340.716C60.4863 343.112 59.2804 346.056 59.2815 349.547C59.2815 353.038 60.4874 355.982 62.8994 358.378C65.3113 360.774 68.2158 361.973 71.6129 361.973C73.8657 361.973 75.8831 361.449 77.6652 360.402C79.4306 359.367 80.8793 357.869 81.8547 356.07V361.45H84.2856V337.644H81.8547V343.024ZM78.9513 356.736C77.0157 358.7 74.6351 359.683 71.8096 359.683C68.9841 359.683 66.5957 358.699 64.6444 356.731C62.692 354.764 61.7164 352.367 61.7175 349.542C61.7186 346.716 62.6943 344.325 64.6444 342.367C66.5968 340.4 68.9852 339.416 71.8096 339.414C74.634 339.413 77.0145 340.397 78.9513 342.367C80.8857 344.336 81.8535 346.732 81.8547 349.555C81.8558 352.379 80.888 354.772 78.9513 356.736Z" fill="#3E3A71"/>
<path d="M90.6154 339.977H99.2802V361.449H101.661V339.977H110.326V337.644H90.6154V339.977Z" fill="#3E3A71"/>
<path d="M119.037 357.307V337.644H116.656V361.449H118.751L133.89 341.786V361.449H136.32V337.644H134.223L119.037 357.307Z" fill="#3E3A71"/>
<path d="M184.356 358.83L174.738 337.648H172.167L183.117 361.882L182.594 363.166C181.833 365.008 180.841 366.428 179.618 367.428C179.054 367.91 178.398 368.274 177.691 368.499C176.984 368.724 176.238 368.805 175.499 368.738V370.975C177.5 371.133 179.341 370.538 181.022 369.19C182.703 367.841 184.005 365.992 184.927 363.642L195.209 337.648H192.639L184.356 358.83Z" fill="#3E3A71"/>
<path d="M219.634 337.644H202.923V349.547C202.923 353.546 202.05 356.735 200.304 359.116H197.543V367.829H199.971V361.449H220.538V367.829H222.966V359.116H219.634V337.644ZM217.206 359.116H203.253C204.618 356.641 205.3 353.452 205.3 349.547V339.977H217.203L217.206 359.116Z" fill="#3E3A71"/>
<path d="M240.201 337.121C236.71 337.121 233.75 338.319 231.321 340.716C228.892 343.112 227.678 346.056 227.679 349.547C227.679 353.038 228.893 355.982 231.321 358.378C233.748 360.774 236.708 361.973 240.201 361.973C243.66 361.973 246.603 360.774 249.032 358.378C251.461 355.982 252.675 353.038 252.673 349.547C252.673 346.057 251.46 343.113 249.032 340.716C246.604 338.318 243.661 337.12 240.201 337.121ZM247.342 356.736C245.406 358.705 243.025 359.689 240.201 359.688C237.376 359.687 234.988 358.703 233.036 356.736C231.084 354.769 230.108 352.372 230.107 349.547C230.106 346.721 231.082 344.328 233.036 342.367C234.988 340.4 237.376 339.416 240.201 339.414C243.025 339.413 245.406 340.397 247.342 342.367C249.277 344.336 250.245 346.732 250.246 349.555C250.247 352.379 249.279 354.772 247.342 356.736Z" fill="#3E3A71"/>
<path d="M271.337 339.788C269.469 339.802 267.63 340.241 265.957 341.072C264.172 341.936 262.669 343.29 261.625 344.976C262.006 342.881 262.744 341.215 263.839 339.978C264.934 338.74 266.655 337.598 269.003 336.55C269.575 336.295 270.511 335.898 271.813 335.359C273.114 334.82 274.074 334.392 274.692 334.073C275.444 333.677 276.174 333.241 276.878 332.765C277.634 332.293 278.282 331.669 278.783 330.931C279.228 330.22 279.528 329.427 279.664 328.599L277.759 327.503C277.675 328.134 277.465 328.741 277.14 329.289C276.849 329.782 276.479 330.224 276.046 330.598C275.537 331.011 274.986 331.37 274.403 331.669C273.785 332.005 273.149 332.306 272.499 332.574C271.91 332.812 271.14 333.138 270.189 333.55C269.237 333.963 268.412 334.328 267.714 334.645C264.096 336.424 261.708 338.4 260.549 340.573C259.39 342.746 258.81 345.817 258.81 349.786C258.81 353.403 259.953 356.347 262.238 358.617C264.524 360.886 267.382 362.021 270.812 362.021C274.175 362.021 276.944 360.974 279.119 358.879C281.294 356.784 282.382 354.134 282.38 350.927C282.38 347.691 281.333 345.026 279.238 342.93C277.144 340.834 274.51 339.786 271.337 339.788ZM277.389 357.188C275.677 358.824 273.487 359.642 270.821 359.641C268.091 359.641 265.837 358.767 264.059 357.021C262.282 355.275 261.393 353.037 261.393 350.308C261.584 347.898 262.64 345.93 264.56 344.406C266.394 342.911 268.692 342.103 271.058 342.119C273.693 342.119 275.835 342.945 277.485 344.596C279.135 346.247 279.96 348.357 279.961 350.927C279.957 353.468 279.097 355.555 277.382 357.188H277.389Z" fill="#3E3A71"/>
<path d="M306.9 348.404H292.047V337.644H289.666V361.449H292.047V350.69H306.9V361.449H309.33V337.644H306.9V348.404Z" fill="#3E3A71"/>
<path d="M329.61 337.121C326.118 337.121 323.158 338.319 320.73 340.716C318.301 343.112 317.087 346.056 317.088 349.547C317.088 353.038 318.302 355.982 320.73 358.378C323.157 360.774 326.117 361.973 329.61 361.973C333.068 361.973 336.012 360.774 338.441 358.378C340.869 355.982 342.083 353.038 342.082 349.547C342.082 346.057 340.868 343.113 338.441 340.716C336.013 338.318 333.069 337.12 329.61 337.121ZM336.751 356.736C334.814 358.705 332.434 359.689 329.61 359.688C326.785 359.687 324.397 358.703 322.444 356.736C320.493 354.769 319.517 352.372 319.516 349.547C319.515 346.721 320.491 344.325 322.444 342.358C324.396 340.391 326.784 339.407 329.61 339.406C332.435 339.405 334.816 340.389 336.751 342.358C338.687 344.327 339.655 346.724 339.655 349.547C339.655 352.37 338.687 354.766 336.751 356.736Z" fill="#3E3A71"/>
</svg>
